<?xml version="1.0" encoding="UTF-8"?>
<svg xmlns="http://www.w3.org/2000/svg" width="256" height="256" viewBox="0 0 256 256">
  <rect width="256" height="256" fill="none"/>
  <defs>
    <linearGradient id="orangeGradient" x1="0" y1="0" x2="0" y2="1">
      <stop offset="0%" stop-color="#FFB300"/>
      <stop offset="100%" stop-color="#FF6F00"/>
    </linearGradient>
  </defs>
  <g>
    <path fill="url(#orangeGradient)" d="M128 16c-40 0-72 32-72 72 0 24 12 44 28 58v14c0 4 3 8 8 8h72c5 0 8-4 8-8v-14c16-14 28-34 28-58 0-40-32-72-72-72zM88 216h80v16H88zM112 248h32v8h-32z"/>
    <path fill="#fff" d="M164 88l-42 42-18-18a8 8 0 0 0-12 12l24 24a8 8 0 0 0 12 0l48-48a8 8 0 0 0-12-12z"/>
  </g>
</svg>
